<svg width="426" height="33" viewBox="0 0 426 33" fill="none" xmlns="http://www.w3.org/2000/svg">
<g filter="url(#filter0_d_70_9)">
<path d="M25.1183 26.778L21.5718 23.6748L18.2263 26.778L5.54865 16.0571L18.2263 5.33633L21.645 8.37548L25.1183 5.33633H400.347L404.051 8.47941L407.441 5.33557L420.119 16.0564L407.441 26.7772L403.977 23.698L400.347 26.778H25.1183Z" fill="black" fill-opacity="0.5" shape-rendering="crispEdges"/>
<path d="M12.8659 16.0571L25.1183 26.778H400.347L412.982 16.0571L400.347 5.33633H25.1183L12.8659 16.0571ZM18.2263 26.778L25.1183 20.3852V11.4633L18.2263 5.33633L5.54865 16.0571L18.2263 26.778ZM407.441 5.33557L400.549 11.7283V20.6503L407.441 26.7772L420.119 16.0564L407.441 5.33557Z" stroke="white" stroke-opacity="0.75" stroke-width="2" shape-rendering="crispEdges"/>
</g>
<defs>
<filter id="filter0_d_70_9" x="0" y="0" width="425.667" height="32.1135" filterUnits="userSpaceOnUse" color-interpolation-filters="sRGB">
<feFlood flood-opacity="0" result="BackgroundImageFix"/>
<feColorMatrix in="SourceAlpha" type="matrix" values="0 0 0 0 0 0 0 0 0 0 0 0 0 0 0 0 0 0 127 0" result="hardAlpha"/>
<feOffset/>
<feGaussianBlur stdDeviation="2"/>
<feComposite in2="hardAlpha" operator="out"/>
<feColorMatrix type="matrix" values="0 0 0 0 0 0 0 0 0 0 0 0 0 0 0 0 0 0 0.25 0"/>
<feBlend mode="normal" in2="BackgroundImageFix" result="effect1_dropShadow_70_9"/>
<feBlend mode="normal" in="SourceGraphic" in2="effect1_dropShadow_70_9" result="shape"/>
</filter>
</defs>
</svg>
